# Blender 4.2.1 LTS
# www.blender.org
mtllib testcube_blender.mtl
o Cube

v 1.000000 1.000000 -1.000000
v 1.000000 -1.000000 -1.000000
v 1.000000 1.000000 1.000000
v 1.000000 -1.000000 1.000000
v -1.000000 1.000000 -1.000000
v -1.000000 -1.000000 -1.000000
v -1.000000 1.000000 1.000000
v -1.000000 -1.000000 1.000000

vn -0.0000 1.0000 -0.0000
vn -0.0000 -0.0000 1.0000
vn -1.0000 -0.0000 -0.0000
vn -0.0000 -1.0000 -0.0000
vn 1.0000 -0.0000 -0.0000
vn -0.0000 -0.0000 -1.0000

vt 0.875000 0.500000
vt 0.625000 0.750000
vt 0.625000 0.500000
vt 0.375000 1.000000
vt 0.375000 0.750000
vt 1.0 1.0
vt 0.0 0.0
vt 1.0 0.0
vt 0.375000 0.500000
vt 0.125000 0.750000
vt 0.125000 0.500000
vt 0.0 1.0
vt 0.875000 0.750000
vt 0.625000 1.000000
vt 0.875000 0.750000
vt 0.625000 1.000000

s 0

//bottom
usemtl Material
f 2/9/4 8/10/4 6/11/4
f 2/9/4 4/5/4 8/10/4

// left
usemtl Material.001
f 3/2/2 8/4/2 4/5/2
f 3/2/2 7/14/2 8/4/2

// up
usemtl Material.002
f 5/1/1 3/2/1 1/3/1
f 5/1/1 7/13/1 3/2/1


//right
usemtl Material.003
f 5/12/6 2/9/6 6/7/6
f 5/12/6 1/3/6 2/9/6

//bottom
usemtl Material.004
f 1/3/5 4/5/5 2/9/5
f 1/3/5 3/2/5 4/5/5

//front
usemtl Material.005
f 7/6/3 6/7/3 8/8/3
f 7/6/3 5/12/3 6/7/3
